<?xml version="1.0" standalone="no"?><svg height="221" version="1.1" viewBox="0 0 291 221" width="291" xmlns="http://www.w3.org/2000/svg"><g><g><path d="M 23.52 157.81 C 23.52 157.81 46.52 208.40 79.35 214.41 C 112.18 220.42 149.29 221.52 173.35 217.69 C 197.41 213.86 250.35 186.00 259.14 173.69 C 267.93 161.38 276.23 140.36 276.14 120.00 C 276.14 110.37 283.81 20.64 130.30 48.42 C -32.00 77.80 23.52 157.81 23.52 157.81 Z" fill="#9b3a3a" fill-rule="nonzero" stroke="#231815" stroke-linecap="round" stroke-width="3"></path><path d="M 156.13 120.01 C 156.13 149.66 132.09 173.70 102.44 173.70 C 72.79 173.70 48.75 149.66 48.75 120.01 C 48.75 90.36 72.79 66.32 102.44 66.32 C 132.09 66.32 156.13 90.36 156.13 120.01 Z" fill="#cb3617" fill-rule="nonzero" stroke="#231815" stroke-linecap="round" stroke-width="3"></path><path d="M 81.94 99.05 C 81.94 99.05 96.94 93.05 99.67 106.54" fill="none" stroke="#231815" stroke-linecap="round" stroke-width="3"></path><path d="M 288.80 81.05 C 282.37 40.38 212.96 17.55 133.80 30.05 C 54.64 42.55 -4.45 85.69 2.00 126.36 C 8.45 167.03 77.84 189.87 157.00 177.36 C 236.16 164.85 295.22 121.73 288.80 81.05 Z M 150.80 147.57 C 87.44 157.57 32.51 143.16 28.12 115.38 C 23.73 87.60 71.55 56.94 134.92 46.93 C 198.29 36.92 253.21 51.33 257.60 79.12 C 261.99 106.91 214.18 137.55 150.81 147.57 Z" fill="#b6504b" fill-rule="nonzero" stroke="#231815" stroke-linecap="round" stroke-width="3"></path><g><path d="M 131.86 2.75 C 157.08 8.70 172.71 33.98 166.75 59.20 C 160.80 84.43 135.52 100.05 110.30 94.10 C 85.07 88.14 69.45 62.87 75.40 37.64 C 81.36 12.42 106.63 -3.21 131.86 2.75 Z" fill="#cb3617" fill-rule="nonzero" stroke="#231815" stroke-linecap="round" stroke-width="2.9999998"></path></g><path d="M 121.08 100.75 C 121.08 100.75 87.27 94.60 102.44 124.93" fill="none" stroke="#231815" stroke-linecap="round" stroke-width="3"></path><path d="M 109.80 31.90 C 109.80 31.90 92.19 32.72 93.00 42.55 C 93.81 52.38 108.14 58.13 109.79 57.72" fill="none" stroke="#231815" stroke-linecap="round" stroke-width="3"></path><path d="M 85.63 28.21 C 85.63 28.21 94.24 27.76 93.42 39.46" fill="none" stroke="#231815" stroke-linecap="round" stroke-width="3"></path><path d="M 247.52 99.05 C 247.52 124.37 227.00 144.89 201.68 144.89 C 176.36 144.89 155.84 124.37 155.84 99.05 C 155.84 73.73 176.36 53.21 201.68 53.21 C 227.00 53.21 247.52 73.73 247.52 99.05 Z" fill="#cb3617" fill-rule="nonzero" stroke="#231815" stroke-linecap="round" stroke-width="3"></path><path d="M 186.00 88.00 C 186.00 88.00 205.67 81.45 209.77 102.35 C 209.77 102.35 202.77 75.14 217.97 72.55" fill="none" stroke="#231815" stroke-linecap="round" stroke-width="3"></path><path d="M 197.11 74.93 C 197.11 74.93 203.26 80.26 197.11 85.18" fill="none" stroke="#231815" stroke-linecap="round" stroke-width="3"></path></g></g></svg>