<?xml version="1.0" standalone="no"?><!DOCTYPE svg PUBLIC "-//W3C//DTD SVG 1.1//EN" "http://www.w3.org/Graphics/SVG/1.1/DTD/svg11.dtd"><svg height="305" version="1.1" viewBox="0 0 246 305" width="246" xmlns="http://www.w3.org/2000/svg" xmlns:xlink="http://www.w3.org/1999/xlink"><g><g><path d="M 39.17 219.93 L 39.05 230.10 C 47.82 232.70 56.90 234.08 66.05 234.20 C 81.11 234.37 90.92 230.08 90.92 230.08 L 91.03 220.54" fill="#7e2216" fill-rule="nonzero" stroke="#231815" stroke-linecap="round" stroke-width="3"></path><path d="M 43.41 15.13 L 43.54 5.00 C 52.34 2.62 61.42 1.46 70.54 1.55 C 85.60 1.72 95.31 6.25 95.31 6.25 L 95.20 15.79" fill="#7e2216" fill-rule="nonzero" stroke="#231815" stroke-linecap="round" stroke-width="3"></path><path d="M 3.44 40.80 C 3.75 14.36 58.33 13.32 69.66 13.46 C 80.99 13.60 137.17 19.71 136.90 42.38 L 135.13 191.38 C 135.13 191.38 136.88 221.10 68.05 220.28 C -4.77 219.41 1.64 192.10 1.64 192.10 Z" fill="#d7553c" fill-rule="nonzero" stroke="#231815" stroke-linecap="round" stroke-width="3"></path><path d="M 39.05 230.10 C 39.05 230.10 41.73 265.44 33.05 267.00" fill="none" stroke="#231815" stroke-linecap="round" stroke-width="3"></path><path d="M 50.41 234.20 C 50.41 234.20 53.09 269.54 44.41 271.10" fill="none" stroke="#231815" stroke-linecap="round" stroke-width="3"></path><path d="M 64.05 235.22 C 64.05 235.22 66.72 270.57 58.05 272.12" fill="none" stroke="#231815" stroke-linecap="round" stroke-width="3"></path><path d="M 78.55 235.13 C 78.55 235.13 83.55 270.22 74.96 272.34" fill="none" stroke="#231815" stroke-linecap="round" stroke-width="3"></path><path d="M 90.72 231.24 C 90.72 231.24 97.43 266.00 89.00 268.59" fill="none" stroke="#231815" stroke-linecap="round" stroke-width="3"></path><path d="M 124.94 246.93 L 123.50 257.00 C 131.85 260.71 140.66 263.25 149.70 264.55 C 164.61 266.68 174.90 263.69 174.90 263.69 L 176.24 254.24" fill="#7e2216" fill-rule="nonzero" stroke="#231815" stroke-linecap="round" stroke-width="3"></path><path d="M 155.65 44.41 L 157.08 34.34 C 166.13 33.11 175.31 33.13 184.35 34.41 C 199.26 36.54 208.35 42.28 208.35 42.28 L 207.00 51.72" fill="#7e2216" fill-rule="nonzero" stroke="#231815" stroke-linecap="round" stroke-width="3"></path><path d="M 112.68 64.68 C 116.42 38.50 170.68 44.54 181.89 46.14 C 193.10 47.74 248.00 61.08 244.82 83.52 L 223.79 231.00 C 223.79 231.00 221.67 260.69 153.53 251.00 C 81.44 240.72 91.33 214.46 91.33 214.46 Z" fill="#d24206" fill-rule="nonzero" stroke="#231815" stroke-linecap="round" stroke-width="3"></path><path d="M 123.50 257.00 C 123.50 257.00 121.58 292.39 112.77 292.81" fill="none" stroke="#231815" stroke-linecap="round" stroke-width="3"></path><path d="M 134.24 262.53 C 134.24 262.53 132.31 297.92 123.50 298.34" fill="none" stroke="#231815" stroke-linecap="round" stroke-width="3"></path><path d="M 147.63 265.31 C 147.63 265.31 145.71 300.71 136.89 301.13" fill="none" stroke="#231815" stroke-linecap="round" stroke-width="3"></path><path d="M 162.00 267.10 C 162.00 267.10 162.39 302.54 153.63 303.53" fill="none" stroke="#231815" stroke-linecap="round" stroke-width="3"></path><path d="M 174.59 264.82 C 174.59 264.82 176.74 300.20 168.03 301.62" fill="none" stroke="#231815" stroke-linecap="round" stroke-width="3"></path></g></g></svg>