<?xml version="1.0" standalone="no"?><svg height="292" version="1.1" viewBox="0 0 156 292" width="156" xmlns="http://www.w3.org/2000/svg"><g><g><path d="M 21.94 166.78 C 21.94 166.78 22.88 154.88 82.74 144.78 C 142.60 134.68 144.63 143.32 144.63 143.32 L 154.71 266.16 C 154.71 266.16 154.02 278.76 110.71 286.88 C 67.40 295.00 61.92 285.21 58.71 284.88 C 56.60 278.79 21.94 166.78 21.94 166.78 Z" fill="#614134" fill-rule="nonzero" stroke="#231815" stroke-linecap="round" stroke-width="3"></path><path d="M 138.84 73.53 L 154.71 264.74" fill="none" stroke="#231815" stroke-linecap="round" stroke-width="3"></path><path d="M 1.57 100.04 L 58.02 283.41" fill="none" stroke="#231815" stroke-linecap="round" stroke-width="3"></path><g><path d="M 154.73 264.74 C 155.40 268.24 150.95 272.57 142.36 276.79 C 133.77 281.02 121.75 284.78 108.92 287.26 C 96.10 289.73 83.54 290.72 73.99 290.00 C 64.45 289.28 58.71 286.91 58.03 283.42 C 57.36 279.92 61.80 275.59 70.39 271.36 C 78.98 267.14 91.01 263.38 103.83 260.90 C 116.66 258.43 129.22 257.44 138.77 258.16 C 148.31 258.88 154.05 261.25 154.73 264.74 Z" fill="none" stroke="#231815" stroke-linecap="round" stroke-width="3"></path></g><path d="M 89.34 194.63 C 89.34 199.62 85.30 203.66 80.31 203.66 C 75.32 203.66 71.28 199.62 71.28 194.63 C 71.28 189.64 75.32 185.60 80.31 185.60 C 85.30 185.60 89.34 189.64 89.34 194.63 Z" fill="#231815" fill-rule="nonzero" stroke="#231815" stroke-linecap="round" stroke-width="3"></path><path d="M 99.42 3.18 L 38.92 52.56 C 38.92 52.56 36.83 53.95 36.22 58.38 C 35.61 62.81 40.72 74.89 40.72 74.89 L 109.29 264.74 C 109.29 264.74 114.91 274.74 124.03 270.45 C 133.15 266.16 131.03 257.55 131.03 257.55 L 63.75 68.24 C 63.75 68.24 61.90 61.50 66.83 56.77 C 71.76 52.04 114.72 21.20 114.72 21.20 C 114.72 21.20 119.78 13.45 113.98 5.74 C 108.18 -1.97 99.42 3.18 99.42 3.18 Z" fill="#fffefb" fill-rule="nonzero" stroke="#231815" stroke-linecap="round" stroke-width="3"></path><path d="M 117.01 13.54 C 117.01 19.92 111.84 25.09 105.46 25.09 C 99.08 25.09 93.91 19.92 93.91 13.54 C 93.91 7.16 99.08 1.99 105.46 1.99 C 111.84 1.99 117.01 7.16 117.01 13.54 Z" fill="none" stroke="#231815" stroke-linecap="round" stroke-width="3"></path><path d="M 131.00 257.17 C 131.00 257.29 131.00 257.42 131.08 257.55 C 132.29 263.82 128.19 269.88 121.93 271.08 C 115.66 272.29 109.60 268.20 108.39 261.93 C 108.39 261.69 108.31 261.45 108.28 261.22" fill="none" stroke="#231815" stroke-linecap="round" stroke-width="3"></path><path d="M 108.35 261.93 L 37.00 64.49 C 35.20 59.53 36.75 53.97 40.85 50.65 L 99.85 2.87" fill="none" stroke="#231815" stroke-linecap="round" stroke-width="3"></path><path d="M 110.62 23.87 L 68.37 55.40 C 64.02 58.65 62.29 64.36 64.12 69.48 L 130.82 256.66" fill="none" stroke="#231815" stroke-linecap="round" stroke-width="3"></path><path d="M 90.71 143.38 C 119.71 138.57 142.59 138.38 143.54 143.30 C 144.60 148.76 118.23 158.44 84.65 164.92 C 51.07 171.40 23.00 172.24 21.94 166.78 C 21.04 162.14 39.94 154.44 66.31 148.26" fill="none" stroke="#231815" stroke-linecap="round" stroke-width="3"></path><path d="M 65.59 71.09 L 67.11 70.79 C 105.02 63.47 137.11 64.70 138.84 73.53 C 140.57 82.36 111.20 95.47 73.29 102.79 C 35.38 110.11 3.29 108.88 1.57 100.04 C 0.27 93.33 16.89 84.16 41.57 76.93" fill="none" stroke="#231815" stroke-linecap="round" stroke-width="3"></path><path d="M 81.14 220.56 C 81.14 222.74 80.28 224.83 78.74 226.37 C 77.20 227.91 75.11 228.77 72.93 228.77 C 70.75 228.77 68.66 227.91 67.12 226.37 C 65.58 224.83 64.72 222.74 64.72 220.56 C 64.72 218.38 65.58 216.29 67.12 214.75 C 68.66 213.21 70.75 212.35 72.93 212.35 C 75.11 212.35 77.20 213.21 78.74 214.75 C 80.28 216.29 81.14 218.38 81.14 220.56 Z" fill="#231815" fill-rule="nonzero" stroke="#231815" stroke-linecap="round" stroke-width="3"></path><path d="M 97.55 240.45 C 97.55 242.63 96.69 244.72 95.15 246.26 C 93.61 247.80 91.52 248.66 89.34 248.66 C 87.16 248.66 85.07 247.80 83.53 246.26 C 81.99 244.72 81.13 242.63 81.13 240.45 C 81.13 238.27 81.99 236.18 83.53 234.64 C 85.07 233.10 87.16 232.24 89.34 232.24 C 91.52 232.24 93.61 233.10 95.15 234.64 C 96.69 236.18 97.55 238.27 97.55 240.45 Z" fill="#231815" fill-rule="nonzero" stroke="#231815" stroke-linecap="round" stroke-width="3"></path><path d="M 74.55 258.18 C 74.55 262.71 70.87 266.39 66.34 266.39 C 61.81 266.39 58.13 262.71 58.13 258.18 C 58.13 256.00 58.99 253.91 60.53 252.37 C 62.07 250.83 64.16 249.97 66.34 249.97 C 68.52 249.97 70.61 250.83 72.15 252.37 C 73.69 253.91 74.55 256.00 74.55 258.18 Z" fill="#231815" fill-rule="nonzero" stroke="#231815" stroke-linecap="round" stroke-width="3"></path><path d="M 124.09 197.19 C 124.09 202.18 120.05 206.22 115.06 206.22 C 110.07 206.22 106.03 202.18 106.03 197.19 C 106.03 192.20 110.07 188.16 115.06 188.16 C 120.05 188.16 124.09 192.20 124.09 197.19 Z" fill="#231815" fill-rule="nonzero" stroke="#231815" stroke-linecap="round" stroke-width="3"></path><path d="M 104.35 212.35 C 104.35 217.34 100.31 221.38 95.32 221.38 C 90.33 221.38 86.29 217.34 86.29 212.35 C 86.29 207.36 90.33 203.32 95.32 203.32 C 100.31 203.32 104.35 207.36 104.35 212.35 Z" fill="#231815" fill-rule="nonzero" stroke="#231815" stroke-linecap="round" stroke-width="3"></path></g></g></svg>