<?xml version="1.0" standalone="no"?><svg height="248" version="1.1" viewBox="0 0 309 248" width="309" xmlns="http://www.w3.org/2000/svg"><g><g><g><path d="M 118.83 130.36 C 118.83 130.36 109.59 122.36 99.99 120.89 C 97.19 120.38 94.30 120.63 91.63 121.62 C 79.93 126.25 90.63 146.74 90.63 146.74 C 90.63 146.74 106.00 134.00 118.83 130.36 Z" fill="#dd5e1b" fill-rule="nonzero" stroke="#231815" stroke-linecap="butt" stroke-width="3"></path><path d="M 100.00 120.89 C 97.69 116.02 96.84 110.58 97.57 105.23 C 98.80 96.31 97.76 89.59 83.68 92.95 C 69.60 96.31 71.40 116.64 86.47 127.83 C 89.67 122.69 88.68 120.53 100.00 120.89 Z" fill="#dd5e1b" fill-rule="nonzero" stroke="#231815" stroke-linecap="butt" stroke-width="3"></path><path d="M 96.91 95.34 C 96.91 95.34 105.51 93.09 106.37 82.34 C 107.23 71.59 117.00 44.51 117.00 44.51 C 118.65 35.28 116.20 25.79 110.30 18.51 C 110.19 27.58 104.15 40.60 97.84 44.26 C 91.53 47.92 87.60 56.51 88.00 59.34 C 87.72 57.58 68.17 62.40 78.69 95.39 C 92.67 88.20 96.91 95.34 96.91 95.34 Z" fill="#dd5e1b" fill-rule="nonzero" stroke="#231815" stroke-linecap="round" stroke-width="3"></path><path d="M 88.00 58.62 C 88.00 58.62 82.67 49.62 84.56 25.01 C 86.45 0.40 74.24 33.16 74.24 33.16 C 74.24 33.16 66.50 52.48 78.32 66.00 C 81.19 62.17 81.30 60.24 88.00 58.62 Z" fill="#dd5e1b" fill-rule="nonzero" stroke="#231815" stroke-linecap="round" stroke-width="3"></path><path d="M 75.47 167.61 C 47.36 176.47 45.09 166.29 45.09 166.29 C 45.09 166.29 41.68 157.29 51.56 152.77 C 61.44 148.25 85.70 151.62 85.70 151.62 C 88.24 149.00 75.47 167.61 75.47 167.61 Z" fill="#dd5e1b" fill-rule="nonzero" stroke="#231815" stroke-linecap="round" stroke-width="3"></path><path d="M 70.31 178.61 C 44.31 192.22 40.60 184.24 40.60 184.24 C 40.60 184.24 35.98 177.48 44.93 171.56 C 53.88 165.64 77.93 163.02 77.93 163.02 C 80.00 160.25 70.31 178.61 70.31 178.61 Z" fill="#dd5e1b" fill-rule="nonzero" stroke="#231815" stroke-linecap="round" stroke-width="3"></path><path d="M 54.19 151.85 C 54.19 151.85 34.49 141.65 34.67 131.48 C 34.67 131.48 37.44 123.32 27.05 126.11 C 16.66 128.90 19.37 144.84 22.53 147.37 C 25.62 152.68 37.17 161.00 44.00 159.92 C 44.00 159.92 47.14 153.46 54.19 151.85 Z" fill="#dd5e1b" fill-rule="nonzero" stroke="#231815" stroke-linecap="round" stroke-width="3"></path><path d="M 34.00 126.54 L 44.23 103.66 C 44.23 103.66 32.58 99.51 24.57 113.84 C 16.56 128.17 23.18 128.22 23.18 128.22 C 23.18 128.22 29.28 123.32 34.00 126.54 Z" fill="#dd5e1b" fill-rule="nonzero" stroke="#231815" stroke-linecap="round" stroke-width="3"></path><path d="M 43.58 172.54 C 43.58 172.54 24.00 159.07 13.69 163.76 C 3.38 168.45 20.35 191.34 39.51 181.24 C 39.60 178.31 39.91 174.83 43.58 172.54 Z" fill="#dd5e1b" fill-rule="nonzero" stroke="#231815" stroke-linecap="round" stroke-width="3"></path><path d="M 17.86 162.73 C 17.86 162.73 12.76 153.16 12.24 149.47 C 11.72 145.78 7.00 141.00 2.70 150.94 C -1.60 160.88 6.55 167.42 10.49 168.60 C 11.78 164.62 12.62 163.54 17.86 162.73 Z" fill="#dd5e1b" fill-rule="nonzero" stroke="#231815" stroke-linecap="round" stroke-width="3"></path><path d="M 72.44 178.19 C 72.44 178.19 70.99 189.10 72.84 195.61 C 74.69 202.12 48.48 205.28 44.93 201.05 C 41.38 196.82 41.08 189.29 49.20 186.41 C 57.34 184.94 65.19 182.17 72.44 178.19 Z" fill="#dd5e1b" fill-rule="nonzero" stroke="#231815" stroke-linecap="round" stroke-width="3"></path><path d="M 43.00 192.00 C 43.00 192.00 15.09 186.28 15.00 205.05 C 14.91 223.82 44.38 200.51 44.38 200.51 C 44.38 200.51 41.64 196.00 43.00 192.00 Z" fill="#dd5e1b" fill-rule="nonzero" stroke="#231815" stroke-linecap="round" stroke-width="3"></path><path d="M 20.90 212.47 C 20.90 212.47 20.61 229.35 13.06 222.84 C 5.51 216.33 15.00 205.05 15.00 205.05 C 15.00 205.05 14.79 212.06 20.90 212.47 Z" fill="#dd5e1b" fill-rule="nonzero" stroke="#231815" stroke-linecap="round" stroke-width="3"></path><path d="M 73.74 199.19 C 73.74 199.19 56.12 201.24 68.00 219.54 C 75.27 227.08 82.24 216.18 82.24 216.18 C 82.24 216.18 75.53 207.64 73.74 199.19 Z" fill="#dd5e1b" fill-rule="nonzero" stroke="#231815" stroke-linecap="round" stroke-width="3"></path><path d="M 64.05 210.43 C 64.05 210.43 43.00 212.00 39.31 226.00 C 35.62 240.00 65.54 230.67 68.01 219.55 C 65.53 215.08 65.58 216.23 64.05 210.43 Z" fill="#dd5e1b" fill-rule="nonzero" stroke="#231815" stroke-linecap="round" stroke-width="3"></path><path d="M 39.31 226.00 C 39.31 226.00 24.94 228.06 22.60 236.48 C 28.42 235.91 34.60 241.33 42.60 233.38 C 40.15 231.34 37.84 231.69 39.31 226.00 Z" fill="#dd5e1b" fill-rule="nonzero" stroke="#231815" stroke-linecap="round" stroke-width="3"></path></g><g><path d="M 240.96 165.94 C 247.57 200.06 215.43 234.99 169.16 243.96 C 122.90 252.93 80.03 232.54 73.42 198.42 C 66.80 164.30 98.95 129.37 145.21 120.40 C 191.48 111.43 234.34 131.82 240.96 165.94 Z" fill="#dd5e1b" fill-rule="nonzero" stroke="#231815" stroke-linecap="round" stroke-width="3"></path></g><path d="M 152.68 140.67 C 152.68 142.05 152.13 143.37 151.16 144.34 C 150.19 145.31 148.87 145.86 147.49 145.86 C 146.11 145.86 144.79 145.31 143.82 144.34 C 142.85 143.37 142.30 142.05 142.30 140.67 C 142.30 139.29 142.85 137.97 143.82 137.00 C 144.79 136.03 146.11 135.48 147.49 135.48 C 148.87 135.48 150.19 136.03 151.16 137.00 C 152.13 137.97 152.68 139.29 152.68 140.67 Z" fill="#231815" fill-rule="nonzero"></path><path d="M 172.20 135.48 C 172.20 136.86 171.65 138.18 170.68 139.15 C 169.71 140.12 168.39 140.67 167.01 140.67 C 165.63 140.67 164.31 140.12 163.34 139.15 C 162.37 138.18 161.82 136.86 161.82 135.48 C 161.82 134.10 162.37 132.78 163.34 131.81 C 164.31 130.84 165.63 130.29 167.01 130.29 C 168.39 130.29 169.71 130.84 170.68 131.81 C 171.65 132.78 172.20 134.10 172.20 135.48 Z" fill="#231815" fill-rule="nonzero"></path><path d="M 186.31 120.08 C 186.31 120.08 194.23 110.79 203.49 107.84 C 206.18 106.91 209.07 106.72 211.86 107.29 C 224.13 110.07 216.73 131.94 216.73 131.94 C 216.73 131.94 199.53 121.68 186.31 120.08 Z" fill="#dd5e1b" fill-rule="nonzero" stroke="#231815" stroke-linecap="butt" stroke-width="3"></path><path d="M 203.49 107.84 C 205.03 102.67 205.03 97.16 203.49 91.99 C 200.92 83.37 200.92 76.57 215.34 77.73 C 229.76 78.89 231.10 99.27 217.91 112.63 C 214.00 108.00 214.61 105.75 203.49 107.84 Z" fill="#dd5e1b" fill-rule="nonzero" stroke="#231815" stroke-linecap="butt" stroke-width="3"></path><path d="M 202.63 82.12 C 202.63 82.12 193.79 81.21 191.30 70.76 C 188.81 60.31 175.05 35.00 175.05 35.00 C 172.02 26.14 172.98 16.39 177.70 8.30 C 179.19 17.30 187.15 29.19 193.95 31.84 C 200.75 34.49 205.89 42.37 205.89 45.23 C 205.89 43.45 225.96 45.23 220.60 79.44 C 205.73 74.41 202.63 82.12 202.63 82.12 Z" fill="#dd5e1b" fill-rule="nonzero" stroke="#231815" stroke-linecap="round" stroke-width="3"></path><path d="M 205.81 44.47 C 205.81 44.47 209.71 34.78 204.07 10.73 C 198.43 -13.32 215.51 17.20 215.51 17.20 C 215.51 17.20 226.12 35.11 216.51 50.25 C 213.09 46.94 212.69 45.05 205.81 44.47 Z" fill="#dd5e1b" fill-rule="nonzero" stroke="#231815" stroke-linecap="round" stroke-width="3"></path><path d="M 234.86 150.26 C 263.99 154.72 264.68 144.31 264.68 144.31 C 264.68 144.31 266.68 134.86 256.22 131.94 C 245.76 129.02 222.31 136.00 222.31 136.00 C 219.39 133.78 234.86 150.26 234.86 150.26 Z" fill="#dd5e1b" fill-rule="nonzero" stroke="#231815" stroke-linecap="round" stroke-width="3"></path><path d="M 241.64 160.34 C 269.45 169.82 271.86 161.34 271.86 161.34 C 271.86 161.34 275.39 153.95 265.64 149.46 C 255.89 144.97 231.72 146.08 231.72 146.08 C 229.24 143.68 241.64 160.34 241.64 160.34 Z" fill="#dd5e1b" fill-rule="nonzero" stroke="#231815" stroke-linecap="round" stroke-width="3"></path><path d="M 253.48 131.43 C 253.48 131.43 271.39 118.34 269.65 108.32 C 269.65 108.32 265.65 100.68 276.37 101.85 C 287.09 103.02 286.82 119.19 284.08 122.17 C 281.84 127.89 271.70 137.84 264.83 137.84 C 264.83 137.84 260.70 131.94 253.48 131.43 Z" fill="#dd5e1b" fill-rule="nonzero" stroke="#231815" stroke-linecap="round" stroke-width="3"></path><path d="M 269.58 103.34 L 256.00 82.28 C 256.00 82.28 266.89 76.40 277.00 89.34 C 287.11 102.28 280.57 103.34 280.57 103.34 C 280.57 103.34 273.74 99.43 269.58 103.34 Z" fill="#dd5e1b" fill-rule="nonzero" stroke="#231815" stroke-linecap="round" stroke-width="3"></path><path d="M 267.13 150.26 C 267.13 150.26 284.42 134.00 295.32 137.00 C 306.22 140.00 292.96 165.26 272.48 158.22 C 271.94 155.35 271.10 152.00 267.13 150.26 Z" fill="#dd5e1b" fill-rule="nonzero" stroke="#231815" stroke-linecap="round" stroke-width="3"></path><path d="M 291.00 136.63 C 291.00 136.63 294.58 126.40 294.53 122.63 C 294.48 118.86 298.47 113.43 304.19 122.63 C 309.91 131.83 302.90 139.50 299.19 141.26 C 297.35 137.57 296.35 136.63 291.00 136.63 Z" fill="#dd5e1b" fill-rule="nonzero" stroke="#231815" stroke-linecap="round" stroke-width="3"></path><path d="M 239.47 160.26 C 239.47 160.26 242.58 170.82 241.74 177.53 C 240.90 184.24 267.29 183.36 270.15 178.64 C 273.01 173.92 272.15 166.43 263.69 164.82 C 255.42 164.62 247.24 163.08 239.47 160.26 Z" fill="#dd5e1b" fill-rule="nonzero" stroke="#231815" stroke-linecap="round" stroke-width="3"></path><path d="M 270.65 169.38 C 270.65 169.38 297.39 159.48 300.37 178.01 C 303.35 196.54 270.65 178.01 270.65 178.01 C 270.65 178.01 272.64 173.18 270.65 169.38 Z" fill="#dd5e1b" fill-rule="nonzero" stroke="#231815" stroke-linecap="round" stroke-width="3"></path><path d="M 295.65 186.25 C 295.65 186.25 298.51 202.89 304.97 195.30 C 311.43 187.71 300.37 178.01 300.37 178.01 C 300.37 178.01 301.62 184.91 295.65 186.25 Z" fill="#dd5e1b" fill-rule="nonzero" stroke="#231815" stroke-linecap="round" stroke-width="3"></path><path d="M 241.40 181.21 C 241.40 181.21 259.12 180.54 250.17 200.44 C 244.17 209.00 235.59 199.29 235.59 199.29 C 235.59 199.29 240.92 189.83 241.40 181.21 Z" fill="#dd5e1b" fill-rule="nonzero" stroke="#231815" stroke-linecap="round" stroke-width="3"></path><path d="M 252.69 190.83 C 252.69 190.83 273.69 189.17 279.52 202.43 C 285.35 215.69 254.31 211.06 250.17 200.43 C 251.94 195.65 252.06 196.80 252.69 190.83 Z" fill="#dd5e1b" fill-rule="nonzero" stroke="#231815" stroke-linecap="round" stroke-width="3"></path><path d="M 279.52 202.43 C 279.52 202.43 294.03 202.27 297.64 210.23 C 291.79 210.56 286.48 216.86 277.36 210.23 C 279.50 207.84 281.84 207.84 279.52 202.43 Z" fill="#dd5e1b" fill-rule="nonzero" stroke="#231815" stroke-linecap="round" stroke-width="3"></path></g></g></svg>